<?xml version="1.0" encoding="iso-8859-1"?>
<!DOCTYPE svg PUBLIC "-//W3C//DTD SVG 1.1//EN" "http://www.w3.org/Graphics/SVG/1.1/DTD/svg11.dtd">
<svg version="1.1" id="Capa_1" xmlns="http://www.w3.org/2000/svg" xmlns:xlink="http://www.w3.org/1999/xlink" x="0px" y="0px"
	 viewBox="0 0 297 297" style="enable-background:new 0 0 297 297;" xml:space="preserve">
<path d="M294.182,221.275c-2.965-4.389-7.987-7.275-13.682-7.275h-33.333V82l0,0l0,0V60.584l41.708-41.5
	c0.403-0.403,0.859-0.837,1.161-1.294c1.812-2.745,1.864-6.334,0.052-9.079c-0.302-0.457-0.628-0.891-1.031-1.294
	c-0.201-0.201-0.398-0.39-0.614-0.566c-0.704-0.574-1.476-1.008-2.292-1.314c-0.686-0.258-1.394-0.429-2.115-0.498
	c-0.263-0.025-0.525-0.038-0.789-0.038c-0.264,0-0.527,0.013-0.79,0.038c-0.721,0.069-1.432,0.24-2.117,0.498
	c-0.816,0.307-1.594,0.74-2.298,1.314c-0.216,0.176-0.425,0.365-0.626,0.566L235.833,49H214.5H82.167V16.5
	c0-3.417-0.872-6.592-2.651-9.225C76.55,2.886,71.612,0,65.917,0c-3.417,0-6.55,1.039-9.184,2.818
	c-1.756,1.186-3.417,2.701-4.603,4.457c-1.779,2.633-2.964,5.808-2.964,9.225V49H16.5h0c-3.417,0-6.592,1.039-9.225,2.818
	c-1.317,0.89-2.498,1.964-3.507,3.187C1.414,57.857,0,61.513,0,65.5s1.414,7.643,3.768,10.496c0.336,0.407,0.692,0.798,1.065,1.172
	C7.819,80.153,11.944,82,16.5,82h0h32.667v148.165c0,0.029,0.004,0.056,0.004,0.085c0,0.027-0.004,0.054-0.004,0.081
	c0,0.001,0,0.003,0,0.004v0v0.33c0,3.383,1.195,6.526,2.956,9.133c1.468,2.173,3.528,3.973,5.842,5.23
	c2.315,1.257,5.05,1.972,7.87,1.972h148.332v33.5c0,9.113,7.387,16.5,16.5,16.5s16.5-7.387,16.5-16.5V247H280.5
	c9.113,0,16.5-7.387,16.5-16.5C297,227.083,295.961,223.908,294.182,221.275z M202.833,82L82.167,202.333V82H202.833z M94.167,214
	L214.167,93.667V214H94.167z"/>
</svg>
